<?xml version="1.0" encoding="iso-8859-1"?>
<!-- Generator: Adobe Illustrator 19.0.0, SVG Export Plug-In . SVG Version: 6.00 Build 0)  -->
<svg version="1.1" id="Capa_1" xmlns="http://www.w3.org/2000/svg" xmlns:xlink="http://www.w3.org/1999/xlink" x="0px" y="0px"
	 viewBox="0 0 512 512" style="enable-background:new 0 0 512 512;" xml:space="preserve">
<g>
	<g>
		<path fill="#ffffff" d="M483.079,216.329c-18.427-25.473-43.986-44.905-73.916-56.199c-5.373-2.028-9.001-6.967-9.246-12.582
			c-0.753-17.321,2.072-40.05,19.809-49.961c3.202-1.789,5.167-5.188,5.121-8.855c-0.046-3.667-2.096-7.015-5.342-8.724
			c-14.02-7.376-31.315-1.802-44.427,5.024c-6.402-10.126-21.125-26.709-51.413-33.725c-3.413-0.788-6.993,0.262-9.433,2.778
			c-2.44,2.515-3.387,6.123-2.494,9.512c1.938,7.355,2.36,13.576,2.18,18.376c-7.882-3.469-18.38-7.59-31.909-11.967
			c-4.27-1.378-8.939,0.252-11.417,3.994c-2.478,3.743-2.158,8.679,0.782,12.07c15.072,17.389,20.775,35.735,16.95,54.531
			c-2.688,13.205-10.867,24.665-22.44,31.438c-3.378,1.977-6.666,4.085-9.878,6.291c-10.818-7.425-22.516-13.546-34.849-18.201
			c-5.373-2.026-9.001-6.965-9.246-12.581c-0.753-17.321,2.072-40.05,19.809-49.961c3.202-1.789,5.167-5.188,5.121-8.854
			c-0.046-3.668-2.096-7.016-5.341-8.724c-13.761-7.244-30.622-2.167-44.416,5.06c-9.564-11.713-27.197-26.683-57.758-33.763
			c-3.414-0.793-6.993,0.264-9.433,2.778c-2.44,2.515-3.387,6.123-2.494,9.512c1.546,5.869,2.34,11.205,2.669,15.886
			c-6.907-2.839-15.546-6.074-26.063-9.477c-4.268-1.377-8.939,0.253-11.417,3.995c-2.478,3.743-2.158,8.679,0.782,12.07
			c15.072,17.389,20.775,35.735,16.95,54.531c-2.688,13.205-10.867,24.665-22.44,31.438c-23.3,13.637-42.801,32.854-56.395,55.577
			C7.429,251.107,0,277.929,0,305.182c0,85.894,72.672,155.772,161.997,155.772c34.122,0,66.515-9.991,94.06-28.939
			c26.515,18.212,58.951,28.939,93.945,28.939c29.374,0,58.146-7.64,83.209-22.092c4.784-2.759,6.426-8.874,3.667-13.658
			c-2.76-4.784-8.874-6.428-13.659-3.668c-22.029,12.703-47.347,19.418-73.218,19.418c-78.298,0-141.998-60.907-141.998-135.772
			c0-47.647,25.415-90.969,67.983-115.883c16.475-9.643,28.115-25.939,31.935-44.71c2.393-11.758,2.766-27.739-4.777-45.487
			c13.064,5.553,18.735,9.31,18.898,9.419c4.536,3.108,10.738,1.968,13.873-2.558c3.144-4.541,2.011-10.771-2.529-13.914
			c-0.048-0.033-0.194-0.133-0.423-0.282c0.722-4.118,1.241-9.559,0.874-16.123c14.04,6.259,21.158,14.897,24.375,20.043
			c-1.241,0.932-2.128,1.639-2.585,2.01c-4.287,3.482-4.938,9.78-1.456,14.066c3.483,4.286,9.781,4.938,14.067,1.455
			c4.612-3.747,13.065-9.33,21.562-13.007c-7.277,12.558-10.702,28.938-9.865,48.205c0.593,13.624,9.293,25.566,22.166,30.424
			c54.611,20.608,89.899,70.199,89.899,126.341c0,23.269-6.258,46.221-18.097,66.377c-2.797,4.762-1.204,10.89,3.558,13.688
			c1.591,0.934,3.334,1.379,5.056,1.379c3.43,0,6.769-1.767,8.632-4.938C504.79,358.463,512,332.007,512,305.181
			C512,273.208,501.999,242.483,483.079,216.329z M209.49,227.615c-14.056,23.492-21.485,50.314-21.485,77.567
			c0,44.857,19.829,85.34,51.491,113.789c-23.031,14.414-49.597,21.983-77.499,21.983C83.7,440.954,20,380.047,20,305.182
			c0-47.647,25.415-90.969,67.983-115.883c16.476-9.643,28.116-25.939,31.937-44.71c2.393-11.76,2.767-27.743-4.78-45.495
			c4.136,1.756,7.479,3.31,10.086,4.593c2.895,1.427,6.3,1.366,9.144-0.159s4.777-4.329,5.191-7.529
			c0.66-5.104,1.054-12.131,0.23-20.604c20.836,8.179,31.288,20.614,35.983,28.132c1.406,2.251,3.65,3.852,6.237,4.447
			c2.585,0.594,5.304,0.139,7.554-1.271c4.31-2.7,8.435-4.891,12.263-6.541c-7.297,12.564-10.732,28.963-9.894,48.255
			c0.593,13.624,9.293,25.566,22.166,30.424c8.861,3.344,17.345,7.551,25.339,12.536
			C227.678,201.943,217.542,214.158,209.49,227.615z"/>
	</g>
</g>
<g>
	<g>
		<path fill="#ffffff" d="M465.768,400.131c-3.871-3.939-10.202-3.995-14.141-0.124l-0.231,0.227c-3.951,3.858-4.025,10.189-0.167,14.141
			c1.959,2.006,4.556,3.013,7.155,3.013c2.52,0,5.042-0.946,6.986-2.847l0.274-0.268
			C469.583,410.402,469.639,404.071,465.768,400.131z"/>
	</g>
</g>
<g>
	<g>
		<path fill="#ffffff" d="M446.033,229.556c-0.715-1.269-1.704-2.378-2.911-3.238c-12.687-13.604-28.786-24.534-47.492-31.592
			c-3.073-1.158-6.518-0.735-9.218,1.131c-2.701,1.868-4.313,4.942-4.313,8.226v35.651c0,14.431-4.312,28.35-12.468,40.253
			c-9.156,13.361-14.529,28.705-15.718,44.735c-7.7-16.118-8.221-34.954-1.191-51.58c4.668-11.039,6.775-22.766,6.465-34.365
			c0.44-1.866,0.349-3.867-0.355-5.763c-1.675-17.414-8.811-34.232-20.938-47.656c-5.861-6.487-14.529-9.558-23.19-8.215
			c-8.504,1.32-15.693,6.751-19.229,14.528c-2.34,5.146-6.168,9.385-11.072,12.254c-37.192,21.769-59.396,59.49-59.396,100.908
			c0,65.298,55.916,118.421,124.646,118.421c6.444,0,12.775-0.467,18.958-1.367c0.019-0.003,0.037-0.006,0.056-0.009
			c59.738-8.724,105.633-57.888,105.633-117.045C474.302,276.596,463.969,250.254,446.033,229.556z M440.694,256.129
			c5.62,9.312,9.628,19.523,11.778,30.286c-5.348-2.866-11.454-4.497-17.934-4.497c-0.36,0-0.715,0.017-1.073,0.027
			c-0.06-3.002-0.558-6.016-1.546-8.937l-2.308-6.824C434.116,263.894,437.956,260.434,440.694,256.129z M402.099,219.617
			c9.062,4.914,17.164,10.997,24.128,17.998l-1.331,5.3c-0.942,3.753-4.303,6.375-8.173,6.375c-2.415,0-4.718-1.038-6.317-2.85
			l-8.307-9.405V219.617z M347.509,362.934c1.244,2.704,0.243,5.875-2.327,7.375c-1.6,0.935-3.564,1.038-5.255,0.282l-12.101-5.423
			c-0.057-0.219-0.119-0.437-0.18-0.655c6.248-1.89,11.774-5.319,16.073-9.819L347.509,362.934z M336.017,254.194
			c0.493-0.215,0.985-0.433,1.472-0.673l0.519-0.255c-0.153,0.775-0.323,1.547-0.508,2.318
			C337.017,255.106,336.525,254.642,336.017,254.194z M313.683,199.948c1.025-2.254,3.002-2.873,4.089-3.042
			c0.232-0.036,0.552-0.07,0.93-0.07c1.171,0,2.905,0.326,4.352,1.928c8.236,9.117,13.433,20.298,15.344,32.018l-9.743,4.798
			c-5.091,2.506-10.909,1.695-15.045-1.643c-0.077-0.069-0.162-0.13-0.241-0.197c-1.34-1.131-2.495-2.531-3.373-4.181l-7.555-14.197
			C307.175,211.07,310.996,205.859,313.683,199.948z M325.489,291.815c-1.992,2.834-4.761,4.596-7.81,4.994
			c-0.394-0.012-0.788-0.028-1.185-0.028c-0.484,0-0.964,0.017-1.443,0.035c-5.894-0.744-10.934-6.456-11.779-13.891
			c-0.491-4.316,0.498-8.483,2.784-11.734c2.028-2.885,4.86-4.668,7.973-5.022c0.393-0.044,0.783-0.066,1.171-0.066
			c6.431,0,12.167,6.006,13.074,13.979C328.764,284.397,327.775,288.564,325.489,291.815z M285.877,226.809l6.463,12.146
			c1.05,1.973,2.272,3.788,3.62,5.463l-0.766,3.201c-1.377,5.757-5.101,10.771-10.215,13.754
			c-5.733,3.346-12.577,3.901-18.776,1.526l-9.396-3.598C263.762,246.762,273.609,235.663,285.877,226.809z M267.607,284.341
			c10.743,0,19.483,7.748,19.483,17.272s-8.74,17.272-19.483,17.272s-19.483-7.748-19.483-17.272S256.864,284.341,267.607,284.341z
			 M268.482,366.873c-8.108-9.364-14.421-20.152-18.448-31.896c5.296,2.496,11.262,3.909,17.573,3.909
			c4.425,0,8.678-0.701,12.653-1.975c0.509,3.039,1.442,5.945,2.731,8.669C275.102,349.966,269.689,357.846,268.482,366.873z
			 M304.467,390.433l-1.775,2.336c-5.592-2.652-10.899-5.76-15.863-9.276l1.428-13.719c0.328-3.153,2.344-5.886,5.26-7.13
			c2.139-0.913,4.507-0.941,6.669-0.077l0.501,0.2c0.87,0.394,1.761,0.75,2.667,1.08c2.345,1.019,4.116,2.98,4.871,5.435
			C310.446,376.509,309.041,384.414,304.467,390.433z M310.613,345.198c-0.029-0.012-0.056-0.025-0.085-0.037l-2.069-0.826
			c-5.154-2.503-8.655-7.33-8.655-12.867c0-7.588,6.571-13.849,14.967-14.61c0.528,0.028,1.059,0.043,1.591,0.043
			c0.575,0,1.152-0.017,1.731-0.051c8.454,0.711,15.09,6.993,15.09,14.617c0,8.101-7.487,14.69-16.689,14.69
			C314.422,346.157,312.445,345.808,310.613,345.198z M349.655,403.255c-9.472,0-18.652-1.197-27.384-3.426
			c2.552-3.95,4.421-8.255,5.578-12.735l3.898,1.747c3.351,1.502,6.942,2.246,10.526,2.246c2.693,0,5.38-0.429,7.959-1.264
			c4.751,2.72,7.764,7.712,8.083,13.093C355.458,403.137,352.572,403.255,349.655,403.255z M378.078,399.564
			c-1.102-8.999-5.565-17.355-12.463-23.257c1.021-2.168,1.73-4.47,2.112-6.837c3.566-1.587,5.934-5.139,5.934-9.13v-1.064h7.413
			c-0.052,0.697-0.088,1.396-0.088,2.101c0,12.128,4.424,23.765,12.454,32.835C388.512,396.357,383.381,398.154,378.078,399.564z
			 M393.054,336.157c-2.14,2.012-4.934,3.12-7.87,3.12h-11.523v-7.733c0-10.456,2.275-20.638,6.624-29.984l3.06,2.847
			c2.734,2.544,5.851,4.512,9.208,5.86l3.757,14.678C397.347,328.996,396.099,333.292,393.054,336.157z M390.675,283.909
			c3.656-6.589,6.471-13.558,8.385-20.784c3.008,2.385,6.459,4.139,10.146,5.151l3.769,11.142c1.13,3.342,0.375,7.055-1.972,9.688
			c-1.773,1.99-4.216,3.155-6.879,3.28c-2.655,0.122-5.204-0.807-7.156-2.622L390.675,283.909z M411.383,384.255l-2.773-3.068
			c-4.917-5.441-7.625-12.478-7.625-19.811c0-2.63,1.29-5.095,3.451-6.595c1.857-1.288,4.184-1.737,6.387-1.225l12.942,2.998
			c1.675,0.495,3.395,0.882,5.157,1.144c0.029,0.004,0.059,0.008,0.088,0.011c1.806,0.264,3.651,0.406,5.528,0.406
			c1.066,0,2.118-0.055,3.162-0.142C430.712,368.181,421.771,377.095,411.383,384.255z M434.538,338.118
			c-0.934,0-1.845-0.093-2.742-0.23l-2.824-0.655c-7.264-2.354-12.534-9.177-12.534-17.215c0-9.98,8.12-18.1,18.1-18.1
			s18.1,8.119,18.1,18.1C452.638,329.999,444.518,338.118,434.538,338.118z"/>
	</g>
</g>
<g>
	<g>
		<path fill="#ffffff" d="M114.486,389.912c-33.609-16.694-54.487-49.16-54.487-84.731c0-22.11,8.131-43.61,22.896-60.539
			c3.63-4.163,3.199-10.479-0.964-14.109c-4.162-3.63-10.479-3.198-14.109,0.963c-17.942,20.573-27.823,46.741-27.823,73.685
			c0,43.217,25.133,82.548,65.591,102.642c1.429,0.71,2.946,1.046,4.44,1.046c3.678,0,7.217-2.036,8.964-5.554
			C121.451,398.37,119.432,392.369,114.486,389.912z"/>
	</g>
</g>
<g>
	<g>
		<path fill="#ffffff" d="M111.798,210.241c-2.74-4.795-8.868-6.447-13.664-3.71c-4.795,2.74-6.461,8.849-3.721,13.644
			c1.846,3.229,5.22,5.04,8.692,5.04c1.682,0,3.387-0.425,4.952-1.319c0.017-0.01,0.047-0.027,0.071-0.041
			C112.899,221.107,114.533,215.025,111.798,210.241z"/>
	</g>
</g>
<g>
</g>
<g>
</g>
<g>
</g>
<g>
</g>
<g>
</g>
<g>
</g>
<g>
</g>
<g>
</g>
<g>
</g>
<g>
</g>
<g>
</g>
<g>
</g>
<g>
</g>
<g>
</g>
<g>
</g>
</svg>
