<?xml version="1.0" encoding="iso-8859-1"?>
<!-- Generator: Adobe Illustrator 19.0.0, SVG Export Plug-In . SVG Version: 6.00 Build 0)  -->
<svg version="1.1" id="Capa_1" xmlns="http://www.w3.org/2000/svg" xmlns:xlink="http://www.w3.org/1999/xlink" x="0px" y="0px"
	 viewBox="0 0 512.001 512.001" style="enable-background:new 0 0 512.001 512.001;" xml:space="preserve">
<g>
	<g>
		<path fill="#ffffff" d="M465.735,207.191c-9.801-9.801-20.669-18.146-32.333-24.947c12.547-9.558,19.962-23.04,22.922-41.313
			c1.321-8.158-1.025-16.427-6.439-22.686c-3.97-4.589-9.243-7.715-15.039-9.027c6.963-9.613,13.331-24.47,13.016-46.517
			c-0.112-7.872-3.559-15.38-9.455-20.598c-5.879-5.202-13.715-7.703-21.516-6.861c-25.768,2.784-42.033,14.599-51.495,24.761
			c-3.636-5.029-8.858-8.707-15.051-10.459c-8.749-2.477-17.856-0.656-24.991,4.989c-12.755,10.095-22.668,22.369-29.033,31.421
			c-3.375-2.462-7.329-4.174-11.635-4.934c-10.15-1.791-20.264,2.039-26.698,10.001c-13.11-10.431-28.028-18.487-44.133-23.706
			c-28.342-9.186-58.301-9.186-86.643,0c-58.138,18.841-97.199,72.562-97.199,133.676v129.094
			c-3.622,0.712-7.044,1.889-10.224,3.545c-9.394,4.896-16.023,13.588-19.173,25.136c-2.792,10.235,4.55,22.575,9.174,29.02
			c5.137,7.157,23.228,29.249,53.769,34.662c2.016,12.99,10.299,23.889,23.341,30.157c13.543,6.509,28.845,6.42,40.935,0.331
			c18.326,19.617,49.207,17.923,69.272,10.822c4.66,2.89,12.252,6.705,22.106,8.593c3.538,0.678,7.525,1.128,11.888,1.127
			c12.681,0,28.5-3.807,45.429-16.855c13.094,7.378,27.217,12.883,42.001,16.275c11.697,2.685,23.604,4.021,35.496,4.021
			c16.625,0,33.219-2.615,49.147-7.815c7.148-2.334,14.184-5.205,20.909-8.533c4.95-2.449,6.978-8.447,4.528-13.397
			c-2.449-4.951-8.448-6.977-13.397-4.528c-5.869,2.904-12.009,5.409-18.248,7.447c-39.471,12.885-81.53,7.415-115.686-13.866
			c-0.258-0.179-0.522-0.345-0.793-0.498c-8.579-5.427-16.659-11.84-24.054-19.235c-5.794-5.794-10.961-11.981-15.507-18.474
			c-0.049-0.074-0.104-0.144-0.155-0.217c-37.505-53.782-32.285-128.524,15.662-176.47c13.425-13.426,29.133-23.735,46.244-30.585
			c0.441-0.145,0.872-0.311,1.28-0.512c15.746-6.12,32.654-9.323,50.056-9.323c18.626,0,36.687,3.671,53.363,10.66
			c0.404,0.207,0.821,0.385,1.249,0.535c15.841,6.826,30.404,16.66,42.968,29.224c41.325,41.324,52.149,104.486,26.935,157.171
			c-2.384,4.982-0.278,10.953,4.703,13.338c4.982,2.381,10.953,0.279,13.338-4.703C525.437,326.817,513.047,254.501,465.735,207.191
			z M226.76,412.582c4.649,6.308,9.824,12.348,15.531,18.054c5.118,5.12,10.558,9.852,16.269,14.188
			c-11.516,7.313-23.165,10.025-34.753,8.037c-11.48-1.974-18.899-7.992-18.916-8.006c-2.938-2.491-7.042-3.076-10.562-1.5
			c-13.017,5.836-43.729,11.293-55.575-9.085c-1.532-2.634-4.181-4.426-7.195-4.868c-3.017-0.438-6.066,0.516-8.289,2.599
			c-6.6,6.187-17.992,7.248-27.706,2.579c-4.057-1.95-13.388-7.828-12.411-20.268c0.21-2.677-0.665-5.325-2.429-7.35
			c-1.763-2.024-4.266-3.255-6.945-3.415c-19.261-1.149-33.182-11.939-39.766-18.27c-10.496-10.092-13.909-19.235-14.007-21.587
			c1.688-5.936,4.725-10.081,9.027-12.323c5.684-2.962,13.996-2.738,23.402,0.627c2.519,0.901,5.293,0.757,7.704-0.403
			c2.41-1.159,4.256-3.236,5.124-5.767c0.958-2.792,4.363-6.447,9.576-7.874c6.198-1.692,12.913,0.34,19.418,5.888
			c2.068,1.765,4.766,2.616,7.475,2.343c2.706-0.268,5.187-1.626,6.87-3.763c5.637-7.156,14.703-10.698,22.052-8.618
			c8.082,2.291,10.642,10.248,11.364,16.52c0.427,3.694,2.868,6.847,6.338,8.185c3.47,1.336,7.396,0.639,10.191-1.813
			c7.345-6.443,14.219-9.079,21.016-8.051c11.262,1.7,20.772,13.527,23.495,17.953c0.195,0.321,0.408,0.623,0.632,0.914
			c2.399,7.462,5.369,14.779,8.903,21.884l-15.638-3.096c-0.232-1.019-0.621-2.019-1.192-2.962l-6.292-10.394
			c-2.859-4.724-9.009-6.235-13.733-3.376c-4.063,2.46-5.741,7.35-4.314,11.677l-32.72-6.477l-7.834-9.952
			c-3.414-4.339-9.702-5.088-14.043-1.672c-2.136,1.681-3.396,4.058-3.724,6.556l-27.149-5.374
			c-5.418-1.073-10.68,2.45-11.751,7.868c-1.072,5.417,2.45,10.679,7.868,11.751l34.656,6.86l-1.821,0.742
			c-5.114,2.084-7.571,7.919-5.487,13.034c1.58,3.879,5.318,6.229,9.265,6.229c1.256,0,2.534-0.239,3.77-0.742l26.749-10.898
			c0.91-0.371,1.732-0.865,2.464-1.449l15.792,3.126l-4.956,2.063c-5.099,2.122-7.511,7.977-5.388,13.075
			c1.6,3.842,5.318,6.159,9.235,6.159c1.281,0,2.583-0.248,3.84-0.771l32.535-13.545L226.76,412.582z M242.29,207.191
			c-34.578,34.578-49.745,81.327-45.506,126.585c-4.212-2.298-8.922-4.09-14.089-4.889c-8.472-1.308-16.813,0.11-24.934,4.226
			c-4.41-9.271-11.879-15.782-21.653-18.553c-12.297-3.488-26.053-0.052-36.51,8.607c-9.638-5.631-20.052-7.237-30.037-4.507
			c-7.387,2.021-13.981,6.451-18.469,12.119c-0.362-0.083-0.72-0.153-1.08-0.229V200.992c0-50.826,31.501-95.687,78.873-113.095
			c8.881,14.096,24.625,23.074,41.647,23.074c5.522,0,10-4.478,10-10c0-5.522-4.478-10-10-10c-7.902,0-15.327-3.276-20.713-8.702
			c19.26-3.39,38.982-2.048,57.868,4.072c16.964,5.498,32.067,14.453,44.614,25.995c0.533,0.636,1.146,1.215,1.846,1.715
			c16.94,16.256,28.927,37.37,34.093,61.122C271.36,182.909,255.812,193.668,242.29,207.191z M411.925,171.828
			c-13.198-5.193-27.114-8.59-41.45-10.065l21.888-3.21c5.464-0.802,9.244-5.881,8.443-11.346
			c-0.802-5.465-5.878-9.236-11.346-8.443l-20.21,2.964l11.258-13.596c3.522-4.255,2.93-10.559-1.324-14.08
			c-4.256-3.522-10.56-2.928-14.08,1.324l-28.23,34.096v-20c0-5.522-4.478-10-10-10c-5.522,0-10,4.478-10,10v35.818
			c-3.295,0.79-6.558,1.683-9.784,2.682c-5.117-21.178-15.092-40.937-29.253-57.698c-1.635-1.935-3.333-3.807-5.063-5.644
			c0.186-0.256,0.359-0.526,0.548-0.779c2.767-3.711,6.737-3.341,7.888-3.135c1.442,0.255,4.934,1.3,6.22,5.588
			c1.146,3.882,4.52,6.689,8.545,7.112c4.019,0.429,7.907-1.622,9.837-5.181c0.12-0.223,12.31-22.472,31.954-38.02
			c2.038-1.614,4.636-2.134,7.133-1.428c2.518,0.712,4.478,2.538,5.379,5.01c2.206,6.048,4.112,10.102,4.192,10.271
			c1.652,3.503,5.162,5.768,9.028,5.768c0.037,0,0.074,0,0.111,0c3.91-0.045,7.42-2.328,9.009-5.901
			c0.475-1.023,12.015-25.09,46.421-28.808c2.246-0.248,4.415,0.451,6.113,1.954c1.716,1.519,2.679,3.615,2.711,5.905
			c0.467,32.642-17.166,42.669-18.656,43.457c-2.944,1.294-4.949,3.866-5.617,7.017c-0.673,3.173,0.375,6.411,2.575,8.794
			c2.251,2.438,8.108,6.493,22.294,6.268c2.405-0.074,4.722,0.983,6.299,2.808c0.9,1.04,2.334,3.256,1.824,6.404
			C433.774,155.066,426.526,165.191,411.925,171.828z"/>
	</g>
</g>
<g>
	<g>
		<path fill="#ffffff" d="M466.495,415.601c-3.937-3.869-10.27-3.814-14.141,0.126l-0.762,0.768c-3.905,3.905-3.905,10.237,0,14.143
			c1.953,1.952,4.512,2.929,7.071,2.929s5.118-0.977,7.071-2.929c0.297-0.298,0.592-0.595,0.887-0.895
			C470.491,425.804,470.435,419.472,466.495,415.601z"/>
	</g>
</g>
<g>
	<g>
		<path fill="#ffffff" d="M400.07,309.764c-10.245-4.517-16.315-15.031-15.104-26.163c0.429-3.939-1.51-7.76-4.941-9.741
			c-3.433-1.981-7.71-1.749-10.907,0.591c-9.035,6.615-21.176,6.615-30.211,0c-3.198-2.341-7.476-2.573-10.907-0.591
			c-3.432,1.981-5.37,5.802-4.941,9.741c1.211,11.132-4.859,21.646-15.104,26.163c-3.626,1.599-5.966,5.188-5.966,9.15
			c0,3.962,2.34,7.551,5.965,9.149c10.246,4.519,16.316,15.033,15.105,26.164c-0.429,3.938,1.51,7.76,4.941,9.741
			c3.431,1.98,7.709,1.749,10.906-0.591c9.035-6.613,21.178-6.613,30.213,0c1.751,1.282,3.825,1.931,5.907,1.931
			c1.721,0,3.447-0.443,4.999-1.34c3.432-1.981,5.37-5.803,4.941-9.741c-1.211-11.131,4.859-21.646,15.105-26.164
			c3.625-1.599,5.965-5.188,5.965-9.149C406.036,314.951,403.696,311.362,400.07,309.764z M366.231,340.078
			c-3.997-1.119-8.107-1.678-12.219-1.678c-4.111,0-8.222,0.56-12.219,1.678c-2.059-8.041-6.284-15.36-12.219-21.164
			c5.936-5.804,10.16-13.122,12.219-21.164c7.994,2.238,16.443,2.238,24.438,0c2.059,8.042,6.283,15.36,12.219,21.164
			C372.515,324.718,368.29,332.037,366.231,340.078z"/>
	</g>
</g>
<g>
	<g>
		<path fill="#ffffff" d="M354.481,234.787c-5.522,0-10,4.478-10,10v4.122c0,5.522,4.478,10,10,10c5.522,0,10-4.478,10-10v-4.122
			C364.481,239.265,360.003,234.787,354.481,234.787z"/>
	</g>
</g>
<g>
	<g>
		<path fill="#ffffff" d="M394.733,221.494c-5.104-2.109-10.952,0.316-13.063,5.42l-1.424,3.443c-2.11,5.104,0.317,10.953,5.421,13.063
			c1.25,0.517,2.544,0.762,3.817,0.762c3.927,0,7.651-2.328,9.245-6.182l1.424-3.443
			C402.263,229.453,399.837,223.605,394.733,221.494z"/>
	</g>
</g>
<g>
	<g>
		<path fill="#ffffff" d="M353.544,378.919c-5.522,0-10,4.478-10,10v4.122c0,5.522,4.478,10,10,10c5.522,0,10-4.478,10-10v-4.122
			C363.544,383.397,359.066,378.919,353.544,378.919z"/>
	</g>
</g>
<g>
	<g>
		<path fill="#ffffff" d="M322.358,394.407c-5.105-2.11-10.952,0.316-13.063,5.42l-1.424,3.443c-2.11,5.104,0.317,10.953,5.421,13.063
			c1.25,0.517,2.544,0.762,3.817,0.762c3.927,0,7.651-2.328,9.245-6.182l1.424-3.443
			C329.888,402.366,327.462,396.518,322.358,394.407z"/>
	</g>
</g>
<g>
	<g>
		<path fill="#ffffff" d="M435.212,312.311c-1.86-1.86-4.44-2.93-7.07-2.93s-5.21,1.07-7.07,2.93c-1.87,1.86-2.93,4.44-2.93,7.07
			s1.06,5.21,2.93,7.069c1.86,1.86,4.431,2.931,7.07,2.931c2.63,0,5.21-1.07,7.07-2.931c1.859-1.859,2.93-4.43,2.93-7.069
			C438.142,316.751,437.072,314.171,435.212,312.311z"/>
	</g>
</g>
<g>
	<g>
		<path fill="#ffffff" d="M446.009,346.57l-3.443-1.423c-5.108-2.107-10.953,0.319-13.062,5.423s0.319,10.952,5.423,13.062l3.443,1.423
			c1.25,0.516,2.543,0.761,3.815,0.761c3.928,0,7.655-2.329,9.247-6.184C453.541,354.528,451.113,348.68,446.009,346.57z"/>
	</g>
</g>
<g>
	<g>
		<path fill="#ffffff" d="M286.952,311.371c-1.859-1.859-4.439-2.93-7.069-2.93s-5.21,1.07-7.07,2.93c-1.86,1.86-2.93,4.44-2.93,7.07
			s1.069,5.21,2.93,7.08c1.87,1.86,4.44,2.93,7.07,2.93s5.209-1.07,7.069-2.93c1.87-1.87,2.931-4.45,2.931-7.08
			C289.883,315.821,288.822,313.241,286.952,311.371z"/>
	</g>
</g>
<g>
	<g>
		<path fill="#ffffff" d="M273.096,274.195l-3.443-1.423c-5.107-2.107-10.953,0.319-13.062,5.423c-2.108,5.105,0.321,10.953,5.424,13.062
			l3.443,1.423c1.25,0.516,2.543,0.761,3.815,0.761c3.927,0,7.653-2.329,9.246-6.184C280.628,282.153,278.2,276.305,273.096,274.195
			z"/>
	</g>
</g>
<g>
	<g>
		<path fill="#ffffff" d="M413.832,259.761c-1.859-1.86-4.439-2.931-7.069-2.931s-5.21,1.07-7.07,2.931c-1.87,1.859-2.93,4.439-2.93,7.069
			c0,2.631,1.06,5.2,2.93,7.07c1.86,1.86,4.44,2.93,7.07,2.93s5.21-1.069,7.069-2.93c1.86-1.86,2.931-4.439,2.931-7.07
			C416.762,264.201,415.692,261.621,413.832,259.761z"/>
	</g>
</g>
<g>
	<g>
		<path fill="#ffffff" d="M451.689,278.818c-2.119-5.1-7.971-7.518-13.07-5.4l-3.44,1.429c-5.101,2.118-7.519,7.97-5.4,13.07
			c1.598,3.847,5.318,6.168,9.239,6.168c1.278,0,2.577-0.247,3.831-0.768l3.44-1.429C451.39,289.77,453.808,283.918,451.689,278.818
			z"/>
	</g>
</g>
<g>
	<g>
		<path fill="#ffffff" d="M308.331,363.932c-1.859-1.87-4.43-2.93-7.069-2.93c-2.63,0-5.21,1.06-7.07,2.93c-1.86,1.85-2.93,4.43-2.93,7.07
			c0,2.629,1.07,5.209,2.93,7.069c1.86,1.86,4.44,2.92,7.07,2.92c2.64,0,5.22-1.06,7.069-2.92c1.87-1.87,2.931-4.439,2.931-7.069
			C311.262,368.371,310.201,365.791,308.331,363.932z"/>
	</g>
</g>
<g>
	<g>
		<path fill="#ffffff" d="M278.245,349.909c-2.119-5.1-7.97-7.518-13.07-5.4l-3.44,1.429c-5.101,2.118-7.519,7.97-5.4,13.07
			c1.598,3.847,5.318,6.168,9.239,6.168c1.278,0,2.577-0.247,3.831-0.768l3.44-1.429
			C277.946,360.861,280.364,355.009,278.245,349.909z"/>
	</g>
</g>
<g>
	<g>
		<path fill="#ffffff" d="M413.162,364.592c-1.859-1.86-4.43-2.931-7.069-2.931c-2.63,0-5.21,1.07-7.07,2.931c-1.86,1.859-2.93,4.439-2.93,7.069
			s1.069,5.21,2.93,7.07c1.861,1.86,4.44,2.93,7.07,2.93s5.209-1.07,7.069-2.93c1.87-1.86,2.931-4.44,2.931-7.07
			S415.032,366.451,413.162,364.592z"/>
	</g>
</g>
<g>
	<g>
		<path fill="#ffffff" d="M399.507,403.523l-1.429-3.441c-2.117-5.101-7.97-7.519-13.069-5.401c-5.101,2.117-7.52,7.969-5.401,13.069l1.429,3.441
			c1.597,3.848,5.318,6.169,9.239,6.169c1.277,0,2.577-0.247,3.83-0.768C399.207,414.475,401.626,408.623,399.507,403.523z"/>
	</g>
</g>
<g>
	<g>
		<path fill="#ffffff" d="M308.992,259.091c-1.859-1.86-4.43-2.931-7.06-2.931c-2.64,0.001-5.21,1.071-7.08,2.931c-1.86,1.87-2.93,4.439-2.93,7.08
			c0,2.63,1.069,5.199,2.93,7.069c1.86,1.86,4.439,2.92,7.08,2.92c2.63,0,5.21-1.06,7.06-2.92c1.87-1.87,2.94-4.439,2.94-7.069
			C311.932,263.53,310.862,260.95,308.992,259.091z"/>
	</g>
</g>
<g>
	<g>
		<path fill="#ffffff" d="M328.416,230.078l-1.429-3.441c-2.117-5.102-7.97-7.519-13.069-5.401c-5.101,2.117-7.52,7.969-5.401,13.069l1.429,3.441
			c1.597,3.848,5.318,6.169,9.239,6.169c1.277,0,2.577-0.247,3.83-0.768C328.116,241.03,330.535,235.178,328.416,230.078z"/>
	</g>
</g>
<g>
	<g>
		<path fill="#ffffff" d="M127.877,120.486c-3.107-4.566-9.328-5.746-13.893-2.641l-0.264,0.181c-4.546,3.137-5.688,9.365-2.551,13.91
			c1.94,2.813,5.063,4.321,8.239,4.321c1.958,0,3.938-0.574,5.671-1.771l0.156-0.106
			C129.801,131.273,130.983,125.052,127.877,120.486z"/>
	</g>
</g>
<g>
	<g>
		<path fill="#ffffff" d="M99.151,144.343c-4.679-2.937-10.851-1.523-13.787,3.152c-10.043,15.998-15.352,34.496-15.352,53.496v61.479
			c0,5.522,4.478,10,10,10c5.522,0,10-4.478,10-10v-61.479c0-15.233,4.25-30.055,12.291-42.861
			C105.24,153.453,103.828,147.281,99.151,144.343z"/>
	</g>
</g>
<g>
</g>
<g>
</g>
<g>
</g>
<g>
</g>
<g>
</g>
<g>
</g>
<g>
</g>
<g>
</g>
<g>
</g>
<g>
</g>
<g>
</g>
<g>
</g>
<g>
</g>
<g>
</g>
<g>
</g>
</svg>
