<?xml version="1.0" encoding="iso-8859-1"?>
<!-- Generator: Adobe Illustrator 19.0.0, SVG Export Plug-In . SVG Version: 6.00 Build 0)  -->
<svg version="1.1" id="Capa_1" xmlns="http://www.w3.org/2000/svg" xmlns:xlink="http://www.w3.org/1999/xlink" x="0px" y="0px"
	 viewBox="0 0 511.998 511.998" style="enable-background:new 0 0 511.998 511.998;" xml:space="preserve">
<g>
	<g>
		<path fill="#ffffff" d="M314.998,249.724c-5.13-2.08-10.968,0.394-13.048,5.521c-16.179,39.908-26.108,81.78-29.51,124.451
			c-0.44,5.516,3.674,10.342,9.189,10.783c0.271,0.021,0.54,0.032,0.807,0.032c5.172,0,9.557-3.979,9.976-9.222
			c3.24-40.632,12.696-80.506,28.106-118.518C322.597,257.644,320.126,251.803,314.998,249.724z"/>
	</g>
</g>
<g>
	<g>
		<path fill="#ffffff" d="M85.126,154.361c-3.927-3.849-10.216-3.809-14.094,0.07c-3.949,3.868-4.009,10.195-0.146,14.149
			c1.96,2.007,4.559,3.013,7.162,3.013c2.525,0,5.054-0.948,7.004-2.849c0.055-0.053,0.164-0.161,0.217-0.216
			C89.142,164.577,89.078,158.235,85.126,154.361z"/>
	</g>
</g>
<g>
	<g>
		<path fill="#ffffff" d="M470.545,36.328c-9.539-10.194-61.354-59.235-144.774-23.436c-42.512,18.244-59.418,48.945-66.116,71.487
			c-0.821,2.766-1.508,5.474-2.087,8.108c-9.77-14.458-22.295-28.588-37.387-40.225c-3.987-3.076-9.64-2.712-13.201,0.849
			L179.201,80.89c-1.992,1.992-3.053,4.733-2.923,7.547s1.441,5.446,3.609,7.244c14.451,11.995,25.415,28.488,31.45,42.866
			l-31.237-10.04c-20.969-6.741-43.204-6.949-64.303-0.604c-5.298,1.594-8.302,7.181-6.708,12.478
			c1.594,5.299,7.18,8.306,12.479,6.708c15.521-4.668,31.797-4.969,47.39-0.944c-14.009,5.703-26.565,15.136-36.17,27.815
			c-18.217,24.047-22.493,56.355-11.159,84.312l7.926,19.552c17.549,43.286,26.447,88.918,26.447,135.627v10.964
			c0,26.465,12.006,50.481,31.097,66.531c-2.982,0.671-6.049,1.018-9.16,1.018h-3.254c-16.281,0-31.951-4.913-45.315-14.208
			c-21.325-14.829-34.055-39.188-34.055-65.162c0-48.515-9.18-95.935-27.283-140.942l-2.887-7.178
			c-7.714-19.178-8.437-40.568-2.038-60.231c1.712-5.261-1.165-10.914-6.426-12.626c-5.26-1.714-10.914,1.164-12.626,6.425
			c-7.852,24.129-6.963,50.376,2.501,73.908l2.887,7.178c17.144,42.621,25.837,87.526,25.837,133.466
			c0,32.53,15.945,63.039,42.651,81.611c16.739,11.641,36.363,17.794,56.754,17.794h3.254c10.694,0,21.037-2.738,30.253-7.945
			c7.446,3.255,15.448,5.514,23.858,6.572l10.306,1.295c0.415,0.052,0.832,0.078,1.249,0.078c0.439,0,0.878-0.028,1.314-0.086
			l10.23-1.354c8.329-1.102,16.258-3.379,23.644-6.633c9.271,5.29,19.697,8.072,30.478,8.072h3.254
			c20.39,0,40.016-6.154,56.754-17.794c26.707-18.572,42.651-49.081,42.651-81.611c0-45.94,8.692-90.846,25.837-133.466l2.886-7.178
			c16.364-40.682,6.734-86.836-24.535-117.578c-11.868-11.668-25.942-20.201-41.076-25.347c0.9-0.477,1.805-0.948,2.688-1.444
			c19.744-11.099,33.651-26.002,47.099-40.414c13.297-14.251,25.858-27.711,42.353-34.791c3-1.287,5.184-3.956,5.854-7.152
			C473.705,42.033,472.776,38.712,470.545,36.328z M200.762,87.666l13.957-13.958c19.432,17.081,33.458,38.893,41.101,57.459
			c0.159,0.494,0.347,0.975,0.578,1.435c1.543,3.882,2.802,7.608,3.765,11.108l-16.557,4.467l-8.786-2.37
			C230.159,126.28,217.044,104.029,200.762,87.666z M252.521,490.699l-8.949,1.184l-9.024-1.134
			c-33.357-4.195-58.511-32.711-58.511-66.331v-10.964c0-49.301-9.392-97.465-27.914-143.153l-7.926-19.552
			c-8.696-21.451-5.416-46.237,8.561-64.686c12.721-16.793,32.173-26.19,52.492-26.19c5.757,0,11.586,0.755,17.35,2.31l22.396,6.043
			c1.709,0.462,3.51,0.462,5.219,0l22.396-6.043c26.102-7.037,53.516,2.33,69.841,23.879c13.978,18.451,17.258,43.236,8.561,64.687
			l-7.926,19.552c-18.523,45.688-27.914,93.853-27.914,143.153v10.319C311.172,457.501,285.957,486.273,252.521,490.699z
			 M402.071,168.661c25.481,25.052,33.329,62.662,19.993,95.815l-2.886,7.178c-18.104,45.009-27.284,92.428-27.284,140.942
			c0,25.974-12.73,50.333-34.055,65.162c-13.365,9.294-29.034,14.208-45.315,14.208h-3.254c-3.236,0-6.425-0.372-9.52-1.097
			c19.3-16.19,31.457-40.441,31.457-67.098v-10.319c0-46.709,8.898-92.34,26.447-135.627l7.926-19.552
			c11.334-27.957,7.058-60.265-11.16-84.313c-9.607-12.68-22.165-22.114-36.178-27.816c1.162-0.301,2.326-0.581,3.493-0.832
			c3.438-0.419,6.894-0.944,10.35-1.592C357.648,141.317,383.257,150.164,402.071,168.661z M410.181,73.499
			c-12.406,13.294-25.235,27.043-42.269,36.62c-11.749,6.605-24.965,11.1-37.967,13.677c-4.055,0.393-8.108,1.007-12.142,1.866
			c-13.294,1.456-25.761,0.871-35.493-1.532c16.745-17.594,36.506-31.864,58.931-42.49c5-2.369,7.133-8.343,4.763-13.343
			s-8.344-7.133-13.343-4.763c-21.028,9.964-39.932,22.853-56.478,38.439c3.685-21.89,16.455-53.059,57.49-70.67
			c55.803-23.948,94.409-4.014,112.284,9.779C432.155,49.951,421.026,61.877,410.181,73.499z"/>
	</g>
</g>
<g>
	<g>
		<path fill="#ffffff" d="M386.294,55.639c-1.418-5.346-6.949-8.521-12.295-7.105c-5.346,1.415-8.582,6.909-7.17,12.257
			c1.187,4.488,5.272,7.448,9.717,7.448c0.851,0,1.714-0.107,2.573-0.335c0.005-0.001,0.01-0.003,0.014-0.004
			C384.479,66.481,387.712,60.985,386.294,55.639z"/>
	</g>
</g>
<g>
</g>
<g>
</g>
<g>
</g>
<g>
</g>
<g>
</g>
<g>
</g>
<g>
</g>
<g>
</g>
<g>
</g>
<g>
</g>
<g>
</g>
<g>
</g>
<g>
</g>
<g>
</g>
<g>
</g>
</svg>
